<svg width="121" height="32" viewBox="0 0 121 32" fill="none" xmlns="http://www.w3.org/2000/svg">
<path d="M1.46335 31.5165C0.759583 31.5165 0.275988 30.8088 0.531698 30.1531L11.8544 1.12017C12.0042 0.736274 12.374 0.483515 12.7861 0.483515H17.5545C17.9679 0.483515 18.3387 0.73788 18.4875 1.12356L29.6889 30.1565C29.9417 30.8117 29.4582 31.5165 28.756 31.5165H23.7441C23.321 31.5165 22.9437 31.2503 22.8019 30.8517L14.2868 6.91612C14.086 6.35153 14.5046 5.75824 15.1039 5.75824C15.7048 5.75824 16.1236 6.35453 15.9196 6.91976L7.28387 30.8559C7.14084 31.2523 6.76464 31.5165 6.34321 31.5165H1.46335ZM7.87263 25.8901C7.32034 25.8901 6.87263 25.4424 6.87263 24.8901V21.2637C6.87263 20.7114 7.32034 20.2637 7.87263 20.2637H22.5139C23.0662 20.2637 23.5139 20.7114 23.5139 21.2637V24.8901C23.5139 25.4424 23.0662 25.8901 22.5139 25.8901H7.87263Z" fill="#245BFF"/>
<path d="M46.2764 32C44 32 41.882 31.6044 39.9225 30.8132C37.9918 29.9927 36.2917 28.8498 34.822 27.3846C33.3812 25.9194 32.2574 24.2198 31.4506 22.2857C30.6437 20.3223 30.2403 18.2125 30.2403 15.956C30.2403 13.6996 30.6437 11.6044 31.4506 9.67033C32.2574 7.70696 33.3812 6.00733 34.822 4.57143C36.2629 3.13553 37.9486 2.02198 39.8793 1.23077C41.8388 0.410256 43.9567 0 46.2332 0C48.6537 0 50.8005 0.395604 52.6736 1.18681C54.2537 1.84416 55.6647 2.70379 56.9067 3.76569C57.3262 4.12442 57.3323 4.75997 56.9471 5.15539L53.8438 8.3413C53.4431 8.75267 52.7821 8.73753 52.3429 8.36748C51.7031 7.82834 50.9776 7.3835 50.1666 7.03297C49.0428 6.5348 47.7316 6.28571 46.2332 6.28571C44.9077 6.28571 43.683 6.52015 42.5592 6.98901C41.4641 7.42857 40.5132 8.07326 39.7064 8.92308C38.9283 9.77289 38.3088 10.7985 37.8477 12C37.4155 13.2015 37.1994 14.5201 37.1994 15.956C37.1994 17.4212 37.4155 18.7546 37.8477 19.956C38.3088 21.1575 38.9283 22.1831 39.7064 23.033C40.5132 23.8828 41.4641 24.5421 42.5592 25.011C43.683 25.4799 44.9077 25.7143 46.2332 25.7143C47.7893 25.7143 49.1436 25.4652 50.2963 24.967C51.1198 24.6111 51.8624 24.158 52.5241 23.6076C52.9589 23.246 53.6074 23.2354 54.0039 23.6386L57.1423 26.8301C57.5361 27.2306 57.5247 27.8794 57.0921 28.2376C55.8113 29.298 54.3817 30.1565 52.8033 30.8132C50.9302 31.6044 48.7546 32 46.2764 32Z" fill="#245BFF"/>
<path d="M62.5973 31.5165C62.045 31.5165 61.5973 31.0688 61.5973 30.5165V1.48352C61.5973 0.931232 62.045 0.483515 62.5973 0.483515H65.8872C66.2303 0.483515 66.5495 0.659486 66.7327 0.949667L77.7964 18.4738C78.0822 18.9265 77.7569 19.5165 77.2216 19.5165C76.6868 19.5165 76.3615 18.9274 76.6463 18.4748L87.6699 0.951042C87.8529 0.660075 88.1726 0.483515 88.5163 0.483515H91.8483C92.4006 0.483515 92.8483 0.931231 92.8483 1.48352V30.5165C92.8483 31.0688 92.4006 31.5165 91.8483 31.5165H87.0621C86.5099 31.5165 86.0621 31.0688 86.0621 30.5165V12.7351C86.0621 12.4292 86.3503 12.2051 86.6468 12.2805C86.9556 12.359 87.098 12.716 86.9279 12.9855L79.7431 24.3689C79.56 24.6591 79.2407 24.8352 78.8975 24.8352H75.5066C75.1624 24.8352 74.8425 24.6582 74.6596 24.3668L67.5015 12.9626C67.3387 12.7032 67.4742 12.3602 67.7704 12.2821C68.0584 12.2062 68.3403 12.4234 68.3403 12.7212V30.5165C68.3403 31.0688 67.8926 31.5165 67.3403 31.5165H62.5973Z" fill="#245BFF"/>
<path d="M99.7008 31.5165C99.1485 31.5165 98.7008 31.0688 98.7008 30.5165V1.48352C98.7008 0.931232 99.1485 0.483515 99.7008 0.483515H104.487C105.039 0.483515 105.487 0.931231 105.487 1.48352V30.5165C105.487 31.0688 105.039 31.5165 104.487 31.5165H99.7008ZM104.888 31.5165C104.335 31.5165 103.888 31.0688 103.888 30.5165V26.5385C103.888 25.9862 104.335 25.5385 104.888 25.5385H119.615C120.168 25.5385 120.615 25.9862 120.615 26.5385V30.5165C120.615 31.0688 120.168 31.5165 119.615 31.5165H104.888ZM104.888 18.5494C104.335 18.5494 103.888 18.1017 103.888 17.5494V13.7912C103.888 13.2389 104.335 12.7912 104.888 12.7912H118.103C118.655 12.7912 119.103 13.2389 119.103 13.7912V17.5494C119.103 18.1017 118.655 18.5494 118.103 18.5494H104.888ZM104.888 6.41758C104.335 6.41758 103.888 5.96987 103.888 5.41758V1.48352C103.888 0.93123 104.335 0.483515 104.888 0.483515H119.399C119.952 0.483515 120.399 0.931231 120.399 1.48352V5.41758C120.399 5.96987 119.952 6.41758 119.399 6.41758H104.888Z" fill="#245BFF"/>
</svg>
