<svg width="139" height="32" viewBox="0 0 139 32" fill="none" xmlns="http://www.w3.org/2000/svg">
<rect width="32" height="32" rx="8" fill="#245BFF"/>
<path d="M9.6001 25.6V6.40002H13.1133V22.7132H22.0733V25.6H9.6001Z" fill="white"/>
<path d="M40 12.4012V4.12907H41.5136V11.1574H45.3739V12.4012H40Z" fill="#245BFF"/>
<path d="M46.3794 12.4012V6.6635H47.846V12.4012H46.3794ZM46.2972 4H47.9164V5.44322H46.2972V4Z" fill="#245BFF"/>
<path d="M52.2919 11.3921C52.464 11.3921 52.6439 11.3804 52.8317 11.3569L52.7613 12.4481C52.5266 12.4716 52.3115 12.4833 52.1159 12.4833C51.3102 12.4833 50.7157 12.2995 50.3324 11.9318C49.9491 11.5564 49.7575 11.001 49.7575 10.2657V7.76645H48.6545V6.6635H49.7575V4.95041H51.2242V6.6635H52.7378V7.76645H51.2242V10.2422C51.2242 11.0088 51.5801 11.3921 52.2919 11.3921Z" fill="#245BFF"/>
<path d="M58.7235 9.79634H54.8163C54.8632 10.3283 55.0236 10.7233 55.2974 10.9814C55.5711 11.2396 55.9622 11.3686 56.4707 11.3686C57.1043 11.3686 57.6832 11.1653 58.2073 10.7585L58.6297 11.7676C58.3637 11.9866 58.0273 12.1626 57.6206 12.2956C57.2216 12.4286 56.8188 12.495 56.412 12.495C55.4734 12.495 54.7302 12.2291 54.1827 11.6972C53.6429 11.1653 53.3731 10.4378 53.3731 9.51474C53.3731 8.92807 53.4904 8.40788 53.7251 7.95419C53.9597 7.50049 54.2883 7.14849 54.7107 6.89817C55.1409 6.64786 55.6259 6.5227 56.1656 6.5227C56.9557 6.5227 57.5776 6.77693 58.0313 7.28538C58.4928 7.79383 58.7235 8.49393 58.7235 9.38567V9.79634ZM56.2008 7.55525C55.8097 7.55525 55.4929 7.6804 55.2504 7.93072C55.0157 8.18103 54.871 8.54086 54.8163 9.0102H57.468C57.4524 8.53304 57.3351 8.17321 57.116 7.93072C56.897 7.6804 56.5919 7.55525 56.2008 7.55525Z" fill="#245BFF"/>
<path d="M61.7545 6.6635H63.2682V7.76645H61.7545V12.4012H60.2878V7.76645H59.1849V6.6635H60.2878C60.2878 5.84216 60.499 5.22419 60.9215 4.80961C61.3517 4.39503 62.0166 4.16427 62.9161 4.11733L63.4911 4.08213L63.585 5.17335L63.0335 5.19682C62.572 5.22028 62.2434 5.32588 62.0479 5.51362C61.8523 5.69353 61.7545 5.98687 61.7545 6.39363V6.6635ZM64.0895 12.4012V4.12907H65.5562V12.4012H64.0895Z" fill="#245BFF"/>
<path d="M69.6899 12.495C69.1033 12.495 68.587 12.3738 68.1411 12.1313C67.7031 11.8888 67.3628 11.5407 67.1203 11.087C66.8778 10.6333 66.7566 10.1053 66.7566 9.50301C66.7566 8.90069 66.8778 8.37659 67.1203 7.93072C67.3628 7.47702 67.7031 7.12893 68.1411 6.88644C68.587 6.64395 69.1033 6.5227 69.6899 6.5227C70.2766 6.5227 70.789 6.64395 71.227 6.88644C71.6729 7.12893 72.0132 7.47702 72.2478 7.93072C72.4903 8.37659 72.6116 8.90069 72.6116 9.50301C72.6116 10.1053 72.4903 10.6333 72.2478 11.087C72.0132 11.5407 71.6729 11.8888 71.227 12.1313C70.789 12.3738 70.2766 12.495 69.6899 12.495ZM69.6782 11.3569C70.1554 11.3569 70.5191 11.2005 70.7694 10.8876C71.0197 10.5747 71.1449 10.1131 71.1449 9.50301C71.1449 8.90069 71.0197 8.44308 70.7694 8.13019C70.5191 7.80947 70.1593 7.64912 69.6899 7.64912C69.2206 7.64912 68.8569 7.80947 68.5987 8.13019C68.3484 8.44308 68.2233 8.90069 68.2233 9.50301C68.2233 10.1131 68.3484 10.5747 68.5987 10.8876C68.849 11.2005 69.2089 11.3569 69.6782 11.3569Z" fill="#245BFF"/>
<path d="M81.4749 6.6635H82.9063L80.6535 12.4012H79.3746L77.9665 8.70513L76.5937 12.4012H75.3265L73.0619 6.6635H74.5638L76.0305 10.6529L77.4972 6.6635H78.5532L80.0199 10.6764L81.4749 6.6635Z" fill="#245BFF"/>
<path d="M47.9452 16.0318H49.9735V27.8491H48.3475L42.0115 19.6021V27.8491H40V16.0318H41.6092L47.9452 24.262V16.0318Z" fill="#060F27"/>
<path d="M52.5225 27.8491V16.0318H60.2666V17.7583H54.6513V20.9766H59.9313V22.7031H54.6513V27.8491H52.5225Z" fill="#060F27"/>
<path d="M64.9956 27.8491V17.8086H61.1403V16.0318H71.0132V17.8086H67.1579V27.8491H64.9956Z" fill="#060F27"/>
<path d="M81.0498 28C80.1446 28 79.2954 27.877 78.5019 27.6312C77.7085 27.3853 77.0381 27.0389 76.4905 26.5919L77.2113 25.0163C77.7812 25.4521 78.379 25.7706 79.0048 25.9717C79.6418 26.1729 80.329 26.2735 81.0666 26.2735C81.8823 26.2735 82.5081 26.1338 82.9439 25.8544C83.3909 25.5639 83.6144 25.1616 83.6144 24.6475C83.6144 24.2005 83.4077 23.8597 82.9942 23.625C82.5919 23.3904 81.9158 23.1669 80.966 22.9546C79.9826 22.7422 79.1836 22.4964 78.569 22.217C77.9544 21.9377 77.4906 21.5801 77.1777 21.1442C76.8648 20.7084 76.7084 20.1553 76.7084 19.4848C76.7084 18.792 76.8984 18.1718 77.2783 17.6242C77.6583 17.0766 78.1946 16.652 78.8875 16.3503C79.5803 16.0374 80.3793 15.8809 81.2845 15.8809C82.1114 15.8809 82.8992 16.0094 83.6479 16.2665C84.3966 16.5123 85.0112 16.8531 85.4918 17.289L84.771 18.8646C83.7206 18.0265 82.5584 17.6074 81.2845 17.6074C80.5246 17.6074 79.9211 17.7639 79.4742 18.0768C79.0383 18.3785 78.8204 18.8031 78.8204 19.3507C78.8204 19.8089 79.016 20.1609 79.4071 20.4067C79.7982 20.6526 80.4631 20.8816 81.4018 21.094C82.3964 21.3175 83.2009 21.5689 83.8155 21.8483C84.4413 22.1164 84.9163 22.4629 85.2403 22.8875C85.5756 23.3121 85.7432 23.8485 85.7432 24.4967C85.7432 25.2007 85.5532 25.8209 85.1733 26.3573C84.8045 26.8825 84.2625 27.2904 83.5473 27.5809C82.8433 27.8603 82.0108 28 81.0498 28Z" fill="#060F27"/>
<path d="M91.2863 27.9832C90.4482 27.9832 89.7107 27.81 89.0737 27.4636C88.448 27.1171 87.9619 26.6199 87.6154 25.9717C87.269 25.3236 87.0958 24.5693 87.0958 23.7088C87.0958 22.8484 87.269 22.0997 87.6154 21.4627C87.9619 20.8146 88.448 20.3173 89.0737 19.9709C89.7107 19.6245 90.4482 19.4513 91.2863 19.4513C92.1245 19.4513 92.8564 19.6245 93.4822 19.9709C94.1191 20.3173 94.6052 20.8146 94.9405 21.4627C95.2869 22.0997 95.4601 22.8484 95.4601 23.7088C95.4601 24.5693 95.2869 25.3236 94.9405 25.9717C94.6052 26.6199 94.1191 27.1171 93.4822 27.4636C92.8564 27.81 92.1245 27.9832 91.2863 27.9832ZM91.2696 26.3573C91.9512 26.3573 92.4709 26.1338 92.8285 25.6868C93.1861 25.2398 93.3648 24.5805 93.3648 23.7088C93.3648 22.8484 93.1861 22.1947 92.8285 21.7477C92.4709 21.2895 91.9568 21.0604 91.2863 21.0604C90.6159 21.0604 90.0962 21.2895 89.7275 21.7477C89.3699 22.1947 89.1911 22.8484 89.1911 23.7088C89.1911 24.5805 89.3699 25.2398 89.7275 25.6868C90.0851 26.1338 90.5991 26.3573 91.2696 26.3573Z" fill="#060F27"/>
<path d="M97.1899 27.8491V16.0318H99.2852V27.8491H97.1899Z" fill="#060F27"/>
<path d="M108.972 19.6524V27.8491H106.927V26.5919C106.67 27.0389 106.324 27.3853 105.888 27.6312C105.452 27.8659 104.96 27.9832 104.413 27.9832C102.401 27.9832 101.396 26.8545 101.396 24.5972V19.6524H103.491V24.614C103.491 25.1951 103.608 25.6253 103.843 25.9047C104.078 26.1841 104.446 26.3237 104.949 26.3237C105.53 26.3237 105.994 26.1338 106.34 25.7538C106.698 25.3627 106.877 24.8487 106.877 24.2117V19.6524H108.972Z" fill="#060F27"/>
<path d="M115.343 26.4076C115.589 26.4076 115.846 26.3908 116.114 26.3573L116.014 27.9161C115.679 27.9497 115.371 27.9664 115.092 27.9664C113.941 27.9664 113.092 27.7038 112.544 27.1786C111.997 26.6422 111.723 25.8488 111.723 24.7984V21.2281H110.147V19.6524H111.723V17.2051H113.818V19.6524H115.98V21.2281H113.818V24.7649C113.818 25.86 114.326 26.4076 115.343 26.4076Z" fill="#060F27"/>
<path d="M117.34 27.8491V19.6524H119.436V27.8491H117.34ZM117.223 15.8474H119.536V17.9092H117.223V15.8474Z" fill="#060F27"/>
<path d="M125.334 27.9832C124.496 27.9832 123.759 27.81 123.122 27.4636C122.496 27.1171 122.01 26.6199 121.664 25.9717C121.317 25.3236 121.144 24.5693 121.144 23.7088C121.144 22.8484 121.317 22.0997 121.664 21.4627C122.01 20.8146 122.496 20.3173 123.122 19.9709C123.759 19.6245 124.496 19.4513 125.334 19.4513C126.173 19.4513 126.904 19.6245 127.53 19.9709C128.167 20.3173 128.653 20.8146 128.989 21.4627C129.335 22.0997 129.508 22.8484 129.508 23.7088C129.508 24.5693 129.335 25.3236 128.989 25.9717C128.653 26.6199 128.167 27.1171 127.53 27.4636C126.904 27.81 126.173 27.9832 125.334 27.9832ZM125.318 26.3573C125.999 26.3573 126.519 26.1338 126.877 25.6868C127.234 25.2398 127.413 24.5805 127.413 23.7088C127.413 22.8484 127.234 22.1947 126.877 21.7477C126.519 21.2895 126.005 21.0604 125.334 21.0604C124.664 21.0604 124.144 21.2895 123.776 21.7477C123.418 22.1947 123.239 22.8484 123.239 23.7088C123.239 24.5805 123.418 25.2398 123.776 25.6868C124.133 26.1338 124.647 26.3573 125.318 26.3573Z" fill="#060F27"/>
<path d="M135.998 19.4513C136.982 19.4513 137.714 19.7306 138.194 20.2894C138.675 20.8481 138.915 21.6918 138.915 22.8205V27.8491H136.82V22.9378C136.82 22.3008 136.697 21.8371 136.451 21.5465C136.216 21.256 135.842 21.1107 135.328 21.1107C134.724 21.1107 134.238 21.3007 133.87 21.6806C133.512 22.0606 133.333 22.569 133.333 23.206V27.8491H131.238V19.6524H133.283V20.876C133.562 20.4179 133.937 20.0659 134.406 19.82C134.875 19.5742 135.406 19.4513 135.998 19.4513Z" fill="#060F27"/>
</svg>
