<?xml version="1.0" encoding="utf-8"?>
<!-- Generator: Adobe Illustrator 26.5.0, SVG Export Plug-In . SVG Version: 6.00 Build 0)  -->
<svg version="1.1" id="Layer_1" xmlns="http://www.w3.org/2000/svg" xmlns:xlink="http://www.w3.org/1999/xlink" x="0px" y="0px"
	 viewBox="0 0 691.13 174.16" style="enable-background:new 0 0 691.13 174.16;" xml:space="preserve">
<style type="text/css">
	.st0{fill:#060F36;}
</style>
<polygon class="st0" points="154.78,87.04 112.43,157.7 15.82,157.7 41.89,118.82 63.76,86.19 82.9,86.19 65.55,112.91 
	82.85,112.91 98.95,86.06 82.85,59.29 35.52,59.29 35.52,86.28 18.3,111.99 18.3,43.99 92.63,43.99 117.93,86.04 92.63,128.22 
	55.6,128.22 46.27,142.59 101.22,142.59 134.52,87.06 101.22,31.72 34.28,31.72 22.97,23.34 13.89,16.6 112.43,16.6 "/>
<g>
	<path class="st0" d="M237.91,19.66c43.19,0,71.68,27.41,71.68,69.02s-28.5,69.02-71.68,69.02h-59.06V19.66H237.91z M211.78,50.13
		v77.11h25.44c25.64,0,37.96-16.27,37.96-38.55c0-22.58-12.33-38.55-37.96-38.55H211.78z"/>
	<path class="st0" d="M422.79,157.7h-105.7V19.66H422.4v29.68h-72.37V73.2h68.13v29.58h-68.13v25.24h72.77V157.7z"/>
	<path class="st0" d="M533.03,104.95h-66.65v52.75h-32.93V19.66h104.32v29.68h-71.39v25.83h66.65V104.95z"/>
	<path class="st0" d="M623.26,104.56v53.15h-33.03v-52.95l-52.46-85.09h38.16l30.96,55.12l30.86-55.12h37.07L623.26,104.56z"/>
</g>
</svg>
