<svg width="24" height="24" viewBox="0 0 24 24" fill="none" xmlns="http://www.w3.org/2000/svg">
<rect x="0.5" y="0.5" width="23" height="23" rx="11.5" fill="#627EEA"/>
<path d="M11.9987 4L11.8913 4.36466V14.9452L11.9987 15.0523L16.9099 12.1492L11.9987 4Z" fill="#C0CCF7"/>
<path d="M11.9985 4L7.0871 12.1492L11.9985 15.0523V9.91679V4Z" fill="white"/>
<path d="M11.9987 15.9807L11.9382 16.0545V19.8234L11.9987 20L16.9129 13.0791L11.9987 15.9807Z" fill="#C0CCF7"/>
<path d="M11.9985 20V15.9807L7.0871 13.0791L11.9985 20Z" fill="white"/>
<path d="M11.9987 15.0541L16.91 12.151L11.9987 9.91862V15.0541Z" fill="#8198EE"/>
<path d="M7.0871 12.151L11.9985 15.0541V9.91862L7.0871 12.151Z" fill="#C0CCF7"/>
<rect x="0.5" y="0.5" width="23" height="23" rx="11.5" stroke="white"/>
</svg>
