<svg width="75" height="75" viewBox="0 0 75 75" fill="none" xmlns="http://www.w3.org/2000/svg">
<path fill-rule="evenodd" clip-rule="evenodd" d="M37.5 75C58.2107 75 75 58.2107 75 37.5C75 16.7893 58.2107 0 37.5 0C16.7893 0 0 16.7893 0 37.5C0 58.2107 16.7893 75 37.5 75ZM36.4683 35.0498L22.5165 21.0981C22.377 20.957 22.1989 20.8604 22.0046 20.8206C21.8102 20.7807 21.6084 20.7993 21.4246 20.8741C21.2409 20.9489 21.0834 21.0764 20.9721 21.2407C20.8608 21.4049 20.8007 21.5984 20.7994 21.7968V37.2521C20.7793 37.3317 20.7691 37.4137 20.7691 37.4962V53.1956C20.7681 53.3276 20.7934 53.4586 20.8434 53.5808C20.8935 53.703 20.9674 53.814 21.0608 53.9074C21.1541 54.0008 21.2652 54.0747 21.3874 54.1247C21.5094 54.1748 21.6402 54.2 21.7721 54.1991C21.7822 54.1993 21.7923 54.1994 21.8024 54.1993H37.5316C37.663 54.1993 37.7931 54.1733 37.9145 54.1228C38.0358 54.0723 38.1459 53.9982 38.2385 53.9049C38.3311 53.8116 38.4044 53.701 38.454 53.5792C38.5036 53.4575 38.5286 53.3272 38.5277 53.1958V39.941L52.4811 53.8945H52.4886C52.5853 53.993 52.7012 54.0709 52.8289 54.1233C52.9567 54.1757 53.0938 54.2015 53.2319 54.1993C53.3634 54.1993 53.4935 54.1733 53.6148 54.1227C53.7362 54.0722 53.8463 53.9982 53.9389 53.9049C54.0315 53.8116 54.1047 53.7009 54.1543 53.5792C54.204 53.4575 54.229 53.3272 54.228 53.1957V37.4963C54.228 37.4549 54.2254 37.4138 54.2204 37.3731V21.7969C54.2204 21.6661 54.1946 21.5366 54.1446 21.4158C54.0945 21.2949 54.0211 21.1851 53.9286 21.0926C53.8361 21.0001 53.7263 20.9267 53.6055 20.8767C53.4947 20.8308 53.3766 20.8053 53.2569 20.8014C53.2303 20.8001 53.2035 20.7999 53.1767 20.8007L53.1689 20.8009H37.4718C37.3403 20.7999 37.21 20.825 37.0883 20.8746C36.9666 20.9242 36.8559 20.9974 36.7626 21.09C36.6693 21.1826 36.5953 21.2927 36.5448 21.4141C36.4943 21.5354 36.4683 21.6655 36.4683 21.797V35.0498Z" fill="black"/>
</svg>
