<svg width="24" height="24" viewBox="0 0 24 24" fill="none" xmlns="http://www.w3.org/2000/svg">
<rect width="24" height="24" rx="12" fill="#9F9F9F" fill-opacity="0.4"/>
<path d="M16.1149 9.26369C15.8225 9.09659 15.4465 9.09659 15.1123 9.26369L12.7728 10.6423L11.1854 11.5196L8.88773 12.8982C8.5953 13.0653 8.21932 13.0653 7.88512 12.8982L6.08877 11.812C5.79634 11.6449 5.58747 11.3107 5.58747 10.9347V8.84593C5.58747 8.51173 5.75457 8.17753 6.08877 7.96865L7.88512 6.92426C8.17755 6.75716 8.55352 6.75716 8.88773 6.92426L10.6841 8.01042C10.9765 8.17753 11.1854 8.51173 11.1854 8.88771V10.2663L12.7728 9.34724V7.92687C12.7728 7.59267 12.6057 7.25847 12.2715 7.04959L8.9295 5.08614C8.63708 4.91904 8.2611 4.91904 7.92689 5.08614L4.50131 7.09136C4.1671 7.25847 4 7.59267 4 7.92687V11.8538C4 12.188 4.1671 12.5222 4.50131 12.7311L7.88512 14.6945C8.17755 14.8616 8.55352 14.8616 8.88773 14.6945L11.1854 13.3577L12.7728 12.4386L15.0705 11.1018C15.3629 10.9347 15.7389 10.9347 16.0731 11.1018L17.8695 12.1462C18.1619 12.3133 18.3708 12.6475 18.3708 13.0235V15.1123C18.3708 15.4465 18.2037 15.7807 17.8695 15.9895L16.1149 17.0339C15.8225 17.201 15.4465 17.201 15.1123 17.0339L13.3159 15.9895C13.0235 15.8224 12.8146 15.4882 12.8146 15.1123V13.7754L11.2272 14.6945V16.0731C11.2272 16.4073 11.3943 16.7415 11.7285 16.9504L15.1123 18.9138C15.4047 19.0809 15.7807 19.0809 16.1149 18.9138L19.4987 16.9504C19.7911 16.7833 20 16.4491 20 16.0731V12.1044C20 11.7702 19.8329 11.436 19.4987 11.2271L16.1149 9.26369Z" fill="white"/>
</svg>
