<svg width="24" height="24" viewBox="0 0 24 24" fill="none" xmlns="http://www.w3.org/2000/svg">
<rect width="24" height="24" rx="12" fill="#9F9F9F" fill-opacity="0.4"/>
<path d="M6.72887 12L6.73731 15.0946L9.36677 16.6419V18.4536L5.19845 16.0089V11.095L6.72887 12ZM6.72887 8.90537V10.7087L5.19751 9.80281V7.9995L6.72887 7.09363L8.26772 7.9995L6.72887 8.90537ZM10.4649 7.9995L11.9962 7.09363L13.5351 7.9995L11.9962 8.90537L10.4649 7.9995Z" fill="white"/>
<path d="M7.83545 14.4531V12.6414L9.36681 13.5473V15.3506L7.83545 14.4531ZM10.4649 17.2908L11.9963 18.1967L13.5351 17.2908V19.0941L11.9963 20L10.4649 19.0941V17.2908ZM15.7314 7.9995L17.2627 7.09363L18.8016 7.9995V9.80281L17.2627 10.7087V8.90537L15.7314 7.9995ZM17.2627 15.0946L17.2712 12L18.8025 11.0941V16.0079L14.6342 18.4527V16.6409L17.2627 15.0946Z" fill="white"/>
<path d="M16.1645 14.4532L14.6332 15.3507V13.5474L16.1645 12.6415V14.4532Z" fill="white"/>
<path d="M16.1646 9.54683L16.173 11.3586L13.5361 12.9059V16.008L12.0047 16.9054L10.4734 16.008V12.9059L7.83639 11.3586V9.54683L9.37431 8.64096L11.9953 10.1958L14.6323 8.64096L16.1712 9.54683H16.1646ZM7.83545 6.45317L11.9963 4L16.1646 6.45317L14.6332 7.35904L11.9963 5.80424L9.36681 7.35904L7.83545 6.45317Z" fill="white"/>
</svg>
